<?xml version="1.0" standalone="no"?>
<!DOCTYPE svg PUBLIC "-//W3C//DTD SVG 20010904//EN"
 "http://www.w3.org/TR/2001/REC-SVG-20010904/DTD/svg10.dtd">
<svg version="1.0" xmlns="http://www.w3.org/2000/svg"
 width="96.000000pt" height="96.000000pt" viewBox="0 0 96.000000 96.000000"
 preserveAspectRatio="xMidYMid meet">
<metadata>
Created by potrace 1.14, written by Peter Selinger 2001-2017
</metadata>
<g transform="translate(0.000000,96.000000) scale(0.100000,-0.100000)"
fill="#000000" stroke="none">
<path d="M693 873 c-7 -2 -15 -20 -19 -39 -5 -28 -9 -32 -24 -24 -35 19 -55
-47 -34 -113 5 -16 3 -19 -12 -13 -82 32 -114 20 -208 -77 -196 -203 -330
-429 -285 -483 23 -28 106 -7 214 53 148 84 374 279 376 325 2 39 -3 72 -12
91 -11 19 -13 18 72 2 14 -3 34 2 45 10 16 12 17 17 6 34 -11 20 -10 21 22 21
42 0 62 21 46 49 -6 12 -19 21 -30 21 -19 0 -19 1 0 43 24 53 25 64 2 76 -13
7 -30 4 -58 -8 l-40 -18 -13 28 c-12 28 -23 33 -48 22z"/>
</g>
</svg>
